<svg width="40" height="40" viewBox="0 0 40 40" xmlns="http://www.w3.org/2000/svg"><path d="M20 0C8.954 0 0 8.955 0 20c0 11.046 8.954 20 20 20 11.045 0 20-8.954 20-20C40 8.955 31.045 0 20 0zm-.023 37.177c-9.5 0-17.2-7.7-17.2-17.2s7.7-17.2 17.2-17.2 17.2 7.7 17.2 17.2-7.7 17.2-17.2 17.2zm8.186-9.014a11.514 11.514 0 0 1-8.12 3.338c-6.38 0-11.552-5.173-11.552-11.553 0-6.38 5.171-11.553 11.552-11.553 3.192 0 6.081 1.295 8.173 3.39l2.013-2.014a14.352 14.352 0 0 0-10.186-4.223c-7.953 0-14.4 6.447-14.4 14.4s6.447 14.4 14.4 14.4a14.35 14.35 0 0 0 10.134-4.171l-2.014-2.014zm-3.899-3.899a6.055 6.055 0 1 1 .034-8.563l1.875-1.874a8.758 8.758 0 1 0-.05 12.296l-1.859-1.859z"/></svg>
